<svg width="58" height="58" viewBox="0 0 58 58" fill="none" xmlns="http://www.w3.org/2000/svg">
<path d="M33.5507 9.24416L25.3221 14.3558H21.8312L33.5507 7L53 17.7221L53 29.3171L53 29.3192V30.5639H52.9949L52.9526 40.7872H52.9487L36.2935 50.2625H32.5533L46.6416 41.9092V39.291L49.1351 37.6703L49.2123 37.6351V29.3171H51.1299V19.2717L33.5507 9.24416Z" fill="black"/>
<path d="M6.87014 29.5665H8.78768V21.2482L8.86493 21.2131L11.3584 19.5923V16.9741L25.4468 8.62086H21.7065L5.05085 18.0964H5.04742L5.00517 28.3192H5.00001L5 41.161L24.4494 51.8831L36.1688 44.5272H32.6779L24.4494 49.6389L6.87014 39.6113V29.5665Z" fill="black"/>
<path fill-rule="evenodd" clip-rule="evenodd" d="M30.1844 28.5751V20.8453C30.8826 19.9476 32.387 19.8063 33.052 19.8479V21.5933H35.4208V19.8479H36.6675C38.8618 20.2468 40.4909 23.0894 41.0312 24.4609L43.4 27.079L39.5351 37.0531H36.6675V36.1803L38.787 32.9388V32.3154H37.5403L34.4234 35.6816L31.4312 32.3154H30.1844V30.4453H32.3039V29.1985L30.1844 28.5751ZM36.4182 29.3166L41.0312 27.5711L39.9091 30.5633H36.4182V29.3166Z" fill="black"/>
<path d="M32.0545 36.7975L30.1844 33.556V36.7975H32.0545Z" fill="black"/>
<path d="M42.652 25.7013C41.9455 23.5818 40.0088 19.1933 36.4182 18.5948C35.0468 18.4286 31.88 18.3704 30.1844 19.4675V16.1013C30.7247 16.0182 31.8551 16.0265 32.0545 16.7247C32.1377 16.1844 32.7527 15.1288 34.5481 15.2286C35.1299 15.3117 36.2686 15.7273 36.1688 16.7247C36.7091 16.3922 38.0639 15.8519 39.161 16.3506C40.2582 16.8493 40.2 18.0545 40.0338 18.5948C40.4494 18.4286 41.5299 18.3704 42.5273 19.4675C42.8597 19.9151 43.3252 20.9904 42.5273 21.7117C43.4 21.961 45.3948 24.3298 42.652 25.7013Z" fill="black"/>
<path fill-rule="evenodd" clip-rule="evenodd" d="M25.3314 21.3261C26.4645 21.3261 27.1852 21.9154 27.5 22.2101V27.0723H21C18.356 30.6085 16.3607 31.595 14.7801 30.6085C13.6469 29.9012 13.9932 27.9564 14.3079 27.0723C15.8188 23.1825 19.6589 21.9154 21.39 21.7681C21.39 20.7072 22.0264 20.0004 23.4428 20C24.5759 19.9997 25.174 21.0314 25.3314 21.3261ZM23.5 22.2577L25.4322 24.19L23.5 26.1222L21.5678 24.19L23.5 22.2577Z" fill="black"/>
<path d="M21.5 28.0005H27.5L27.5 31.0005H20V32.5005C22 32.5005 22 34.0005 22 34.5005H19V35.5005C19.4 37.1005 21.5 40 23 40C25.5 39.5005 26.8333 37.3333 27.5 36V39.5005C26.8333 40.3338 25 42.0005 23 42.0005C21 42.0005 19.1667 39.6672 18.5 38.5005L18 40.5005C12.8 37.7005 14.8333 33.6672 16.5 32.0005C18.4505 31.6104 19.7923 30.0029 20.7628 28.8401C21.0362 28.5126 21.2802 28.2203 21.5 28.0005Z" fill="black"/>
<path d="M27.5 33.0001C25.5 31.8001 24.3333 33.5001 24 34.5001H27.5V33.0001Z" fill="black"/>
</svg>
