<svg width="58" height="58" viewBox="0 0 58 58" fill="none" xmlns="http://www.w3.org/2000/svg">
<path d="M25.6127 30.9115L29.0559 27.4684L47.3011 45.7136L43.858 49.1568L25.6127 30.9115Z" fill="black"/>
<path d="M32.6409 31.0546L29.0546 27.4684L10.9183 45.7136L14.3615 49.1568L32.6409 31.0546Z" fill="black"/>
<path d="M31.4198 47.3445L29.1091 49.6553L19.1506 39.6266L21.3692 37.4081L31.4198 47.3445Z" fill="black"/>
<path d="M26.6979 47.2441L29.1571 49.7033L39.2191 39.4227L37.0665 37.2701L26.6979 47.2441Z" fill="black"/>
<path fill-rule="evenodd" clip-rule="evenodd" d="M29.1571 22.755C24.5286 22.755 20.9599 26.2478 20.9599 30.3374H17.681C17.681 24.2408 22.9203 19.4761 29.1571 19.4761C35.3939 19.4761 40.6332 24.2408 40.6332 30.3374H37.3543C37.3543 26.2478 33.7856 22.755 29.1571 22.755Z" fill="black"/>
<path d="M40.6332 33.6163V30.3374H37.3543V30.5423L40.6332 33.6163Z" fill="black"/>
<path d="M17.681 33.6163V30.3374H20.9599V30.5423L17.681 33.6163Z" fill="black"/>
<path d="M43.037 36.0902C43.6034 34.5177 43.9121 32.8222 43.9121 31.0546C43.9121 22.8491 37.2602 16.1972 29.0546 16.1972C20.8491 16.1972 14.1972 22.8491 14.1972 31.0546C14.1972 32.8564 14.5179 34.5833 15.1054 36.1813L13.8898 37.5099L11.3531 39.8812C10.0257 37.2243 9.27887 34.2267 9.27887 31.0546C9.27887 20.1328 18.1328 11.2789 29.0546 11.2789C39.9765 11.2789 48.8304 20.1328 48.8304 31.0546C48.8304 34.2777 48.0594 37.3206 46.6917 40.0091L43.037 36.0902Z" fill="black"/>
<path d="M25.8782 8H32.436V12.5085H25.8782V8Z" fill="black"/>
<path d="M39.9963 10.2542L45.3101 14.0971L42.6681 17.7503L37.3543 13.9075L39.9963 10.2542Z" fill="black"/>
<path d="M18.2814 10.4592L12.9676 14.302L15.6096 17.9553L20.9234 14.1124L18.2814 10.4592Z" fill="black"/>
<path d="M8.13605 20.7057L6.20493 26.9726L10.5135 28.3003L12.4446 22.0333L8.13605 20.7057Z" fill="black"/>
<path d="M50.065 20.7057L51.9961 26.9726L47.6876 28.3003L45.7564 22.0333L50.065 20.7057Z" fill="black"/>
<path d="M52 34.7718L50.3192 41.1105L46.6917 40.0091L47.6421 33.6163L52 34.7718Z" fill="black"/>
<path d="M6 34.7718L7.68078 41.1105L11.3531 39.8812L10.3579 33.6163L6 34.7718Z" fill="black"/>
</svg>
