<svg width="58" height="58" viewBox="0 0 58 58" fill="none" xmlns="http://www.w3.org/2000/svg">
<path fill-rule="evenodd" clip-rule="evenodd" d="M49.5853 18.2353C47.3366 20.8409 42.2824 26.3306 40.0551 27.4442L37.6994 26.0522L37.3781 29.2646L30.7391 31.5133L27.3126 25.7309L22.8152 32.6912C20.5665 32.6198 16.0263 32.2842 15.855 31.5133L15.1054 28.4079C15.1054 27.9439 14.7199 27.1016 13.178 27.4442C12.5712 27.5513 11.4433 28.0653 11.7859 29.2646L12.2143 30.4425C10.2868 29.6929 6.15353 27.8725 5.03989 26.5876C4.71865 30.1926 6.19636 38.9875 14.6771 45.3266L15.855 50.8948L18.2108 47.3611C19.46 48.1107 23.0294 49.6098 27.3126 49.6098C29.2757 49.5384 33.8873 49.1387 36.6286 48.1107L38.556 50.8948L39.0914 46.8257C41.4115 45.3623 46.6084 41.3432 48.8357 36.9744L49.0499 36.6531L50.6561 37.5098C51.1558 37.5811 52.2837 37.5098 52.7977 36.6531C53.3117 35.7965 52.7263 34.8684 52.3693 34.5115L50.2277 33.3336C50.309 32.9397 50.4013 32.5491 50.4964 32.1461C50.9443 30.2492 51.4564 28.0804 51.1915 24.0177C51.0716 22.1796 50.2159 19.9107 49.7475 18.6689C49.6859 18.5055 49.6309 18.3598 49.5853 18.2353ZM43.5489 29.6929L47.725 26.1593C48.4103 26.9302 47.5822 30.264 47.0825 31.9416L43.5489 29.6929ZM40.7648 32.1557L46.0117 35.154C45.6691 37.0386 41.7285 40.8649 39.8011 42.5425L40.7648 32.1557ZM32.8409 35.154L37.017 33.4407L36.3745 41.0434L32.8409 35.154ZM20.955 36.439L17.8496 41.6859L16.5647 35.7965L20.955 36.439ZM29.2001 35.9036L25.024 36.3319L19.9912 44.5771C20.1532 44.6426 20.3239 44.714 20.504 44.7893L20.5043 44.7894C21.9915 45.4114 24.121 46.3019 27.2727 46.3974C30.8063 46.5045 34.5541 45.7549 34.7683 45.3266L29.2001 35.9036ZM9.81861 33.6549L12.8169 34.7257L13.8877 40.2938C12.4314 39.1802 10.5682 35.4039 9.81861 33.6549Z" fill="black"/>
<path d="M17.4073 12.0543C18.0404 11.2422 19.2418 11.1681 19.9699 11.8963L22.2379 14.1643C22.9358 14.8621 22.9013 16.0037 22.1626 16.6582L12.644 25.0913C11.9189 25.7337 10.8057 25.6476 10.188 24.9012L9.62533 24.2213C9.11277 23.602 9.09977 22.7096 9.59408 22.0756L17.4073 12.0543Z" fill="black"/>
<path d="M10.0136 16.8919C9.18111 16.1894 9.15049 14.917 9.9482 14.1753L11.1355 13.0713C11.6835 12.5618 12.5357 12.5747 13.0681 13.1005L21.436 21.3657C22.2826 22.2019 22.204 23.591 21.2684 24.3263C20.5313 24.9056 19.4886 24.8875 18.7721 24.2828L10.0136 16.8919Z" fill="black"/>
<path d="M31.229 11.9696C30.0517 11.3667 29.7039 9.84726 30.5017 8.79229L31.229 7.83039C31.6829 7.23019 32.5168 7.06994 33.1608 7.4592L44.6168 14.3839C45.6836 15.0287 45.8959 16.4872 45.0572 17.4094C44.456 18.0706 43.4862 18.2468 42.6907 17.8394L31.229 11.9696Z" fill="black"/>
<path d="M35.3567 21.0501C34.6955 21.9428 33.4171 22.0901 32.5702 21.3712L30.7005 19.7843C29.9944 19.185 29.9188 18.1224 30.5328 17.4291L39.0347 7.82957C39.9708 6.77254 41.6024 6.71795 42.6071 7.71006C43.479 8.57105 43.5849 9.94226 42.8555 10.9269L35.3567 21.0501Z" fill="black"/>
</svg>
