<svg width="58" height="58" viewBox="0 0 58 58" fill="none" xmlns="http://www.w3.org/2000/svg">
<path fill-rule="evenodd" clip-rule="evenodd" d="M27.8266 23.1709C29.9837 19.8804 32.4771 12.444 25.1943 9.02197C27.4245 6.31649 34.0346 2.96755 42.6336 11.2156C47.2037 15.1276 55.0715 24.7722 49.9823 32.0551C48.3371 34.724 42.8969 38.0656 34.2978 30.0808L27.4976 23.7193L27.8266 23.1709ZM28.6003 29.7716C31.2326 33.3692 38.106 37.1934 41.2136 38.6558C38.4058 44.1838 32.8047 44.6883 30.3552 44.2496L25.8582 49.7336C22.5239 53.068 20.2279 52.0004 19.4967 51.0498L7.21237 38.6558C3.7903 35.2338 8.41886 31.5996 11.1609 30.2103C9.84472 28.3677 9.88128 23.7391 10.0641 21.6552C9.97634 16.0395 15.5847 12.6613 18.3999 11.6742C20.3376 11.3086 24.6517 11.4987 26.4066 15.184C28.4679 19.5127 23.4592 22.7762 21.4824 24.0642C21.3555 24.1469 21.2411 24.2214 21.1419 24.2875C19.4967 25.3844 20.1548 27.1393 21.471 27.578C22.5239 27.929 24.2496 26.5543 24.9808 25.8231L28.6003 29.7716ZM21.7941 30.629H18.2843V35.6745H13.0196V39.1843H18.2843V44.4489H21.7941V39.1844H26.8395V35.6745H21.7941V30.629Z" fill="black"/>
</svg>
