<svg width="58" height="58" viewBox="0 0 58 58" fill="none" xmlns="http://www.w3.org/2000/svg">
<path d="M50.4345 26.269H47.5379C46.2966 18.0759 39.8414 11.6207 31.731 10.4621V7.56552C31.731 6.15862 30.4897 5 29 5C27.5103 5 26.269 6.15862 26.269 7.56552V10.4621C18.1586 11.7034 11.7034 18.1586 10.4621 26.269H7.56552C6.15862 26.269 5 27.5103 5 29C5 30.4897 6.15862 31.731 7.56552 31.731H10.4621C11.6207 39.9241 18.0759 46.3793 26.269 47.5379V50.4345C26.269 51.8414 27.5103 53 29 53C30.4897 53 31.731 51.8414 31.731 50.4345V47.5379C39.9241 46.3793 46.3793 39.9241 47.5379 31.731H50.4345C51.8414 31.731 53 30.4897 53 29C53 27.5103 51.8414 26.269 50.4345 26.269ZM31.731 42.4897V36.3655L29 32.2276L26.269 36.3655V42.4897C20.8897 41.4138 16.5862 37.1103 15.5103 31.731H21.6345L25.7724 29L21.6345 26.269H15.5103C16.5862 20.8897 20.8897 16.5862 26.269 15.5103V21.6345L29 25.7724L31.731 21.6345V15.5103C37.1103 16.5862 41.4138 20.8897 42.4897 26.269H36.3655L32.2276 29L36.3655 31.731H42.4897C41.4138 37.1103 37.1103 41.4138 31.731 42.4897Z" fill="black"/>
</svg>
