<svg width="58" height="58" viewBox="0 0 58 58" fill="none" xmlns="http://www.w3.org/2000/svg">
<path d="M28.7685 32.6135V5L37.3978 13.6292L34.1618 22.4742L37.3978 27.2202V30.8876L32.2202 28.191L30.4944 32.6135H28.7685Z" fill="black"/>
<path d="M28.8764 53V35.9573H30.6023L33.191 39.9483C34.5717 42.2782 36.5708 42.7169 37.3978 42.6449H47.8607L28.8764 53Z" fill="black"/>
<path d="M28.9843 53V35.9573H27.2584L24.6697 39.9483C23.289 42.2782 21.2899 42.7169 20.4629 42.6449C20.4629 42.6449 10 42.5371 10 42.6449C10 42.7528 28.9843 53 28.9843 53Z" fill="black"/>
<path d="M28.7685 32.6135V5L20.1393 13.6292L23.3753 22.4742L20.1393 27.2202V30.8876L25.3169 28.191L27.0427 32.6135H28.7685Z" fill="black"/>
<path fill-rule="evenodd" clip-rule="evenodd" d="M20.1393 42.698L10 42.6449C10.1941 40.0218 12.3897 38.0067 15.0697 38.0067C17.7496 38.0067 19.9452 40.0748 20.1393 42.698Z" fill="black"/>
<path fill-rule="evenodd" clip-rule="evenodd" d="M47.8607 42.6449H37.8292C38.0233 40.0218 40.2189 38.0067 42.8989 38.0067C45.5788 38.0067 47.6666 40.0218 47.8607 42.6449Z" fill="black"/>
</svg>
