<svg width="58" height="58" viewBox="0 0 58 58" fill="none" xmlns="http://www.w3.org/2000/svg">
<path d="M29.1124 42.6449V5L34.5056 11.4719V29.2697C36.2315 29.2697 39.6832 27.1843 41.1933 26.1416V28.8382C41.2796 30.7366 39.8629 32.4337 39.1438 33.0449H31.9169V36.8202L33.9663 38.9775L32.1326 40.8112C30.7519 42.3645 29.5438 42.6809 29.1124 42.6449Z" fill="black"/>
<path d="M29.1124 42.6449V5L23.615 11.4719V29.2697C21.8892 29.2697 18.4375 27.1843 16.9274 26.1416V28.8382C16.8411 30.7366 18.2577 32.4337 18.9768 33.0449H26.2038V36.8202L24.1543 38.9775L25.988 40.8112C27.3687 42.3645 28.6809 42.6809 29.1124 42.6449Z" fill="black"/>
<path d="M29.3281 53V46.5281C33.4701 44.1982 38.7483 38.7978 40.8697 36.3888C45.619 30.9955 46.4067 22.2584 46.5865 18.6989L37.8494 13.7371V7.58876L51.6562 15.3551C51.8288 17.6849 51.8719 23.3371 51.1169 25.818C50.0814 31.3407 47.2337 37.4674 44.8607 39.8405C41.5816 44.1551 33.1393 50.4112 29.3281 53Z" fill="black"/>
<path d="M29.3281 53V46.5281C25.1861 44.1982 20.0128 38.7978 17.8915 36.3888C13.1422 30.9955 12.3544 22.2584 12.1746 18.6989L20.9117 13.7371V7.58876L7.10497 15.3551C6.93239 17.6849 6.88924 23.3371 7.6443 25.818C8.6798 31.3407 11.5274 37.4674 13.9005 39.8405C17.1796 44.1551 25.5169 50.4112 29.3281 53Z" fill="black"/>
</svg>
