<svg width="58" height="58" viewBox="0 0 58 58" fill="none" xmlns="http://www.w3.org/2000/svg">
<path fill-rule="evenodd" clip-rule="evenodd" d="M43.3715 28.5453L41.6597 34.4294L34.8128 33.6805L36.6315 26.8336L33.208 25.8707L30.7474 21.6984L32.8871 13.5676L37.2734 11L50.4324 14.5305L53 18.7028L50.7533 27.0476L46.581 29.4012L43.3715 28.5453ZM37.631 16.4562L40.8558 17.2442L39.6424 22.2099L36.4175 21.4219L37.631 16.4562ZM47.4888 18.956L44.264 18.1679L43.0505 23.1336L46.2754 23.9217L47.4888 18.956Z" fill="black"/>
<path fill-rule="evenodd" clip-rule="evenodd" d="M37.3804 46.8395C41.2209 46.8395 44.3343 43.7261 44.3343 39.8856C44.3343 36.045 41.2209 32.9317 37.3804 32.9317C33.5398 32.9317 30.4264 36.045 30.4264 39.8856C30.4264 43.7261 33.5398 46.8395 37.3804 46.8395ZM37.3804 42.5602C38.8575 42.5602 40.055 41.3627 40.055 39.8856C40.055 38.4085 38.8575 37.211 37.3804 37.211C35.9032 37.211 34.7058 38.4085 34.7058 39.8856C34.7058 41.3627 35.9032 42.5602 37.3804 42.5602Z" fill="black"/>
<path d="M14.5929 26.8336L13.523 31.8618H20.263L24.2214 36.5691L32.2452 39.4577L33.208 35.3923L30.5334 34.6434L31.6033 29.8291L27.2169 31.0059C26.4467 26.5554 22.26 23.8737 20.263 23.0892C12.7313 21.1207 8.70876 24.7652 7.63892 26.8336H14.5929Z" fill="black"/>
<path d="M11.0033 40.064L12.6264 35.1862L18.4388 38.5985L24.2356 36.5432L32.6175 38.1145L31.3896 42.1078L28.7039 41.3995L27.1891 46.0928L24.0023 42.8573C21.0848 46.3053 16.1167 46.4983 13.9973 46.1638C6.50566 44.0482 4.8819 38.8687 5.00648 36.5434L11.0033 40.064Z" fill="black"/>
</svg>
