<svg width="58" height="58" viewBox="0 0 58 58" fill="none" xmlns="http://www.w3.org/2000/svg">
<path fill-rule="evenodd" clip-rule="evenodd" d="M47.7685 37.1481C47.7685 44.7983 39.606 51 29.537 51C19.4681 51 11 44.7983 11 37.1481C11 21.1574 29.537 7 29.537 7C29.537 7 48.3796 24.6204 47.7685 37.1481ZM32.3865 30.3579C32.3865 31.6329 31.0304 32.6665 29.3576 32.6665C27.6847 32.6665 26.2778 31.6329 26.2778 30.3579C26.2778 27.6927 29.3576 25.3332 29.3576 25.3332C29.3576 25.3332 32.4881 28.2699 32.3865 30.3579ZM29.1296 37.9694C23.6703 37.3176 21.3888 32.6731 21.0833 30.4324C20.2684 30.2694 16.466 33.2163 14.6666 34.7102L14.7684 34.9139C18.924 40.2917 26.2777 42.9537 29.3332 42.9537C32.5925 42.9537 39.7425 40.2917 43.898 34.9139L43.9999 34.7102C42.2005 33.2163 38.398 30.2694 37.5832 30.4324C37.2777 32.6731 34.5888 37.3111 29.1295 37.9629L29.2966 42.0564L29.1296 37.9694Z" fill="black"/>
</svg>
