<svg width="58" height="58" viewBox="0 0 58 58" fill="none" xmlns="http://www.w3.org/2000/svg">
<path fill-rule="evenodd" clip-rule="evenodd" d="M36.2099 28.6176H22.3764L13.7305 37.0474V40.0735L17.8373 44.0722L20.8634 44.1803L36.2099 28.6176ZM24.4299 35.3182C25.3252 35.3182 26.051 34.5924 26.051 33.6971C26.051 32.8018 25.3252 32.076 24.4299 32.076C23.5345 32.076 22.8087 32.8018 22.8087 33.6971C22.8087 34.5924 23.5345 35.3182 24.4299 35.3182Z" fill="black"/>
<path d="M34.6969 22.5655C34.6969 23.998 33.5356 25.1593 32.1031 25.1593C30.6706 25.1593 29.5093 23.998 29.5093 22.5655C29.5093 21.133 30.6706 19.9717 32.1031 19.9717C33.5356 19.9717 34.6969 21.133 34.6969 22.5655Z" fill="black"/>
<path d="M45.072 10.245C45.072 11.6775 43.9108 12.8388 42.4782 12.8388C41.0457 12.8388 39.8845 11.6775 39.8845 10.245C39.8845 8.81251 41.0457 7.65124 42.4782 7.65124C43.9108 7.65124 45.072 8.81251 45.072 10.245Z" fill="black"/>
<path d="M50.4316 46.425C49.5001 48.7523 46.8582 49.8839 44.5308 48.9524C42.2034 48.0208 41.0719 45.379 42.0034 43.0516C42.935 40.7242 50.2596 33.8052 50.2596 33.8052C50.3198 33.9457 51.3632 44.0976 50.4316 46.425Z" fill="black"/>
<path d="M44.8559 29.8065L47.3416 27.3207L37.8311 17.7021L40.2087 15.3245L50.2596 25.3754C51.2971 26.3265 51.1242 28.1853 50.4757 29.0499L47.0174 32.6164C46.4986 33.0487 45.6484 33.2288 45.2882 33.2648C43.9048 33.6107 42.7664 32.8325 42.3702 32.4002L23.7814 50.989H15.1355L9.19139 45.0449L11.7852 42.4511L16.7566 47.4225H22.2684L42.3702 27.3207L44.8559 29.8065Z" fill="black"/>
<path d="M28.2698 13.1367L30.7628 10.6583L40.3534 20.197L42.7381 17.8264L32.7167 7.746C31.7687 6.70569 29.9094 6.87315 29.0429 7.51905L25.4663 10.9669C25.0324 11.4844 24.8498 12.3341 24.8127 12.6942C24.4628 14.0765 25.2376 15.2172 25.6688 15.6147L7.02542 34.1488L7 42.7947L12.9266 48.7562L15.528 46.1701L10.5712 41.184L10.5874 35.6723L30.7482 15.6297L28.2698 13.1367Z" fill="black"/>
</svg>
