<svg width="58" height="58" viewBox="0 0 58 58" fill="none" xmlns="http://www.w3.org/2000/svg">
<path fill-rule="evenodd" clip-rule="evenodd" d="M40.5369 19.4966L49.0201 13.5906C49.0917 18.4228 47.8819 28.9463 42.4698 32.3826C43.9732 33.4206 47.3879 35.5826 49.0201 35.9262C47.7673 37.7159 44.3168 41.2523 40.5369 41.0805L28.4027 35.9262V24.1141H30.443C31.1588 25.4743 33.6 28.1517 37.6376 27.9799C42.6846 27.7651 42.4698 22.2886 41.6107 21L40.5369 19.4966ZM32.2685 34.2081L38.8188 30.7718C39.3915 31.7025 40.0215 33.8859 37.9597 35.1745C37.0649 35.6398 34.6738 36.098 32.2685 34.2081Z" fill="black"/>
<path fill-rule="evenodd" clip-rule="evenodd" d="M16.4862 19.4966L8.00294 13.5906C7.93135 18.4228 9.14119 28.9463 14.5533 32.3826C13.0499 33.4206 9.63515 35.5826 8.00294 35.9262C9.25574 37.7159 12.7063 41.2523 16.4862 41.0805L28.6204 35.9262V24.1141H26.5801C25.8642 25.4743 23.4231 28.1517 19.3855 27.9799C14.3385 27.7651 14.5533 22.2886 15.4123 21L16.4862 19.4966ZM24.7546 34.2081L18.2043 30.7718C17.6316 31.7025 17.0016 33.8859 19.0633 35.1745C19.9582 35.6398 22.3492 36.098 24.7546 34.2081Z" fill="black"/>
<path d="M28.6174 53V39.3624L40.5369 44.4094C37.1007 46.0416 36.8859 49.5996 37.2081 51.1745L33.7718 53L32.1611 44.9463L30.2282 53H28.6174Z" fill="black"/>
<path d="M28.6174 53V39.3624L16.8054 44.4094C20.2416 46.0416 20.4564 49.5996 20.1342 51.1745L23.5705 53L25.1812 44.9463L27.1141 53H28.6174Z" fill="black"/>
<path d="M39.6922 23.0304C39.3467 23.9348 37.6409 24.1234 35.8823 23.4515C34.1236 22.7797 32.9781 21.5018 33.3236 20.5974C33.6691 19.6929 35.3749 19.5044 37.1336 20.1762C38.8922 20.8481 40.0378 22.126 39.6922 23.0304Z" fill="black"/>
<path d="M17.6458 23.0304C17.9913 23.9348 19.6971 24.1234 21.4557 23.4515C23.2144 22.7797 24.3599 21.5018 24.0144 20.5974C23.6689 19.6929 21.9631 19.5044 20.2044 20.1762C18.4458 20.8481 17.3002 22.126 17.6458 23.0304Z" fill="black"/>
<path d="M32.5906 12.1946C34.3087 14.2349 35.7047 16.1678 36.1342 17.2416C32.0107 17.2416 30.7651 19.5324 30.6577 20.6779H26.4698V20.3557C26.0403 17.5208 22.783 17.0984 21.2081 17.2416C21.7235 10.6268 29.1544 6.32438 32.8054 5C30.9154 7.74899 31.8747 10.9418 32.5906 12.1946Z" fill="black"/>
</svg>
