<svg width="58" height="58" viewBox="0 0 58 58" fill="none" xmlns="http://www.w3.org/2000/svg">
<path fill-rule="evenodd" clip-rule="evenodd" d="M33.5506 9.24416L25.3221 14.3558H21.8312L33.5506 7V9.11948V9.24416ZM33.5507 9.24416L51.1299 19.2717V29.3171H49.2123V37.6351L49.1351 37.6703L46.6416 39.291V41.9092L32.5533 50.2625H36.2935L52.9487 40.7872H52.9526L52.9948 30.5636H53L53 20.5896L53 19.0935L53 17.7221L33.5507 7V9.24416ZM6.87013 29.5662H8.78769V21.2482L8.86493 21.2131L11.3584 19.5923V16.9741L25.4468 8.62086H21.7065L5.05129 18.0961H5.04743L5.00518 28.3194H5V39.7896L5 41.161L24.4494 51.8831L36.1688 44.5272H32.6779L24.4494 49.6389L6.87013 39.6113V29.5662ZM27.8156 27.8208V20.3403C27.6078 20.1325 26.8182 19.5423 25.0727 19.7169C24.5867 19.7655 23.9681 19.9429 23.3942 20.1945C21.9728 20.8175 22.1078 22.4217 22.8714 23.7727L23.3273 24.5792L21.8471 23.2129C19.696 21.2273 15.9968 20.2285 15.3481 23.0831C14.8494 25.2774 15.3065 31.8104 15.5974 34.8026C16.2208 37.2546 17.7917 42.2333 19.0883 42.5325V39.1662C19.5039 40.2883 20.9834 42.5325 23.5766 42.5325C26.1699 42.5325 27.6494 40.2052 28.0649 39.0416V35.6753L25.9455 39.1662C25.6961 39.4156 24.6738 40.2883 23.5766 40.2883C23.5766 40.2883 23.1194 40.3156 22.8286 40.2883C20.6252 40.0818 19.213 35.9247 19.213 35.9247V33.5559L19.3377 33.6805C19.5815 33.8431 19.8681 33.9299 20.1612 33.9299H21.7946C22.0902 33.9299 22.3299 33.6902 22.3299 33.3946C22.3299 33.175 22.2652 32.9582 22.1214 32.7921C21.7497 32.3628 21.1102 31.8104 20.4597 31.8104H19.213V29.9403C19.587 28.6935 20.6094 26.2 21.7065 26.2C22.1221 26.3247 23.0779 26.973 23.5766 28.5688C23.7844 28.8598 24.4244 29.2172 25.3221 28.3195C25.9455 27.9454 27.0177 27.8208 27.8156 27.8208ZM25.3221 32.6832C26.0203 31.8853 27.2753 31.8521 27.8156 31.9352C27.8987 32.1845 28.0151 32.8578 27.8156 33.556C27.5662 34.4287 25.3221 34.1793 25.0727 33.8053C24.8732 33.5061 25.1558 32.9326 25.3221 32.6832ZM30.3091 16.1013V29.9403C30.5584 30.2312 31.3314 30.6884 32.4286 30.1896L33.3013 29.4416L31.5558 28.3195V27.6961C32.8026 27.0728 35.5205 25.2276 36.4182 22.8338C37.0831 23.8312 38.6374 25.9258 39.5351 26.3247C38.1221 26.9897 35.1714 28.5439 34.6727 29.4416C34.7974 29.9403 35.5205 30.7881 37.4156 30.1896C37.8727 29.8987 38.8618 29.1922 39.161 28.6935C39.826 28.3611 40.9065 28.1948 39.9091 30.1896C38.9117 32.1845 36.0026 35.6754 34.6727 37.1715H33.3013L30.3091 34.5533V37.5455C30.6 38.1689 31.7304 39.3907 33.9247 39.2909C34.9636 39.3325 37.4655 38.6177 39.161 35.426L42.1533 38.4182L41.6546 35.8H43.6494L42.0286 32.8078H43.2753C43.3169 29.9819 43.2255 24.0307 42.5273 22.8338C42.1117 21.0468 40.2333 17.5974 36.0442 18.0961L33.9247 15.852H30.3091V16.1013ZM36.2935 33.6806C36.2935 33.4728 35.7699 33.0572 33.6753 33.0572C31.5808 33.0572 31.3896 33.4728 31.5558 33.6806C31.3622 33.9715 31.5649 34.5533 33.9247 34.5533C36.2844 34.5533 36.4871 33.9715 36.2935 33.6806Z" fill="black"/>
</svg>
