<svg width="58" height="58" viewBox="0 0 58 58" fill="none" xmlns="http://www.w3.org/2000/svg">
<path d="M17.5 8.875C19.0972 7.91667 23.6333 6 29 6C34.3667 6 38.9028 7.91667 40.5 8.875C49.7 13.0917 52 24.0486 52 29H47.2083L41.9375 23.7292V17.5833C41.9375 16.4788 41.0421 15.5833 39.9375 15.5833H34.75C33.9833 12.9 30.5972 11.2708 29 10.7917C27.4028 11.2708 24.0167 12.9 23.25 15.5833H19.0625C17.4056 15.5833 16.0625 16.9265 16.0625 18.5833V23.7292L10.7917 29H6C6 24.0486 8.3 13.0917 17.5 8.875Z" fill="black"/>
<path fill-rule="evenodd" clip-rule="evenodd" d="M21.8125 44.3333L27.5858 50.1066C28.3668 50.8877 29.6332 50.8877 30.4142 50.1066L36.1875 44.3333L40.2825 46.5383C41.3892 47.1342 42.7647 46.5736 43.1397 45.3739L44.7045 40.3664C44.7759 40.1379 44.8878 39.924 45.0348 39.7351L47.5869 36.4537C47.9527 35.9834 48.5151 35.7083 49.1109 35.7083V35.7083C50.1773 35.7083 51.0417 34.8439 51.0417 33.7776V32.9167C51.0417 31.8121 50.1462 30.9167 49.0417 30.9167H45.9893C45.263 30.9167 44.5937 31.3105 44.241 31.9454L41.1451 37.518C40.5525 38.5846 39.1512 38.8766 38.1819 38.1354L31.875 33.3125V31.875L33.2069 29.2111C33.2764 29.0723 33.3125 28.9192 33.3125 28.7639V23.7852C33.3125 23.4508 33.1454 23.1386 32.8672 22.9531L32.3203 22.5885C32.0421 22.4031 31.875 22.0908 31.875 21.7565V21.5749C31.875 21.1445 32.1504 20.7624 32.5588 20.6262L32.6287 20.6029C33.0371 20.4668 33.3125 20.0847 33.3125 19.6542V18.0373C33.3125 17.3865 33.054 16.7623 32.5938 16.3021V16.3021C32.1335 15.8419 31.5094 15.5833 30.8585 15.5833H27.1415C26.4906 15.5833 25.8665 15.8419 25.4062 16.3021V16.3021C24.946 16.7623 24.6875 17.3865 24.6875 18.0373V19.6542C24.6875 20.0847 24.9629 20.4668 25.3713 20.6029L25.4412 20.6262C25.8496 20.7624 26.125 21.1445 26.125 21.5749V21.7565C26.125 22.0908 25.9579 22.4031 25.6797 22.5885L25.1328 22.9531C24.8546 23.1386 24.6875 23.4508 24.6875 23.7852V28.7639C24.6875 28.9192 24.7236 29.0723 24.7931 29.2111L26.125 31.875V33.3125L19.8181 38.1354C18.8488 38.8766 17.4475 38.5846 16.8549 37.518L13.759 31.9454C13.4063 31.3104 12.737 30.9167 12.0107 30.9167H8.95833C7.85376 30.9167 6.95833 31.8121 6.95833 32.9167V33.7776C6.95833 34.8439 7.82274 35.7083 8.88905 35.7083V35.7083C9.48485 35.7083 10.0473 35.9834 10.4131 36.4537L12.9652 39.7351C13.1122 39.924 13.2241 40.1379 13.2955 40.3664L14.8603 45.3739C15.2353 46.5736 16.6108 47.1342 17.7175 46.5383L21.8125 44.3333ZM28.0417 40.5V37.625H29.9583V40.5H31.875V42.4167H29.9583V44.3333H28.0417V42.4167H26.125V40.5H28.0417Z" fill="black"/>
</svg>
