<svg width="58" height="58" viewBox="0 0 58 58" fill="none" xmlns="http://www.w3.org/2000/svg">
<path d="M45.2891 20.8716C46.1167 27.2703 46.1333 33.6769 44.7676 40.0276C44.1304 42.987 44.0724 42.979 40.9025 42.979C39.57 42.979 38.2375 42.923 36.9133 42.995C36.0608 43.043 35.5311 42.7471 35.3821 41.9872C34.8607 39.3318 34.3227 36.6763 33.9254 33.9969C33.7103 32.5492 33.8261 32.5332 32.295 32.5332C29.6382 32.5332 26.9815 32.5332 24.3744 32.5332C23.9854 35.1646 23.704 37.6121 23.2322 40.0276C22.6529 42.987 22.5784 42.971 19.4747 42.971C18.0677 42.971 16.6607 42.931 15.262 42.987C14.4923 43.019 14.037 42.7471 13.8963 42.0752C13.3749 39.6757 12.7045 37.2762 12.448 34.8447C11.8852 29.4938 12.0341 24.1349 13.0273 18.824C13.2094 17.8562 13.5487 16.9204 13.8384 15.9766C14.0536 15.2887 14.484 14.9928 15.3033 15.0168C17.2566 15.0808 19.2264 15.0728 21.1797 15.0168C21.9411 14.9928 22.4046 15.2407 22.5618 15.9126C23.0253 17.8642 23.4888 19.8158 23.8695 21.7834C24.0516 22.7512 24.0102 23.751 24.1592 24.7268C24.2006 24.9907 24.5813 25.4146 24.8213 25.4226C27.776 25.4706 30.7224 25.4546 33.6772 25.4546C33.9668 23.2791 34.1903 21.1835 34.5462 19.1039C34.7365 18.0002 35.1255 16.9284 35.4566 15.8486C35.6387 15.2327 36.0525 14.9848 36.7726 15.0008C38.7672 15.0488 40.7618 15.0488 42.7647 15.0008C43.4682 14.9848 43.9234 15.2088 44.089 15.8326C44.5193 17.5123 45.0656 19.1759 45.2891 20.8716ZM52.8207 25.6786C52.6551 23.767 52.2165 21.8634 51.8109 19.9758C51.7199 19.5599 51.2564 18.936 50.9254 18.904C49.4852 18.784 48.0286 18.856 46.5471 18.856C47.6065 25.6866 47.6065 32.3492 46.5471 39.1718C47.5816 39.1718 48.5334 39.1718 49.4935 39.1718C51.4882 39.1718 51.6123 39.1158 52.1006 37.2202C53.069 33.421 53.16 29.5418 52.8207 25.6786ZM11.4382 18.84C10.4285 18.84 9.4767 18.84 8.51663 18.84C6.51372 18.84 6.38957 18.896 5.90126 20.7836C4.92463 24.5908 4.84187 28.47 5.1812 32.3492C5.34673 34.2368 5.76883 36.1004 6.1661 37.9641C6.25715 38.388 6.6958 39.0518 7.01858 39.0838C8.48352 39.2038 9.96501 39.1398 11.4465 39.1398C10.3706 32.2772 10.3871 25.6066 11.4382 18.84Z" fill="black"/>
</svg>
