<svg width="58" height="58" viewBox="0 0 58 58" fill="none" xmlns="http://www.w3.org/2000/svg">
<path fill-rule="evenodd" clip-rule="evenodd" d="M33.5506 9.24416L25.3221 14.3558H21.8312L33.5506 7L53 17.7221V19.0935V20.5896V29.3169V30.5636H52.9948L52.9526 40.787H52.9488L36.2935 50.2623H32.5532L46.6416 41.9091V39.2909L49.1351 37.6701L49.2123 37.635V29.3169H51.1299V19.2717L33.5506 9.24416ZM6.87015 29.5662H8.78768V21.2481L8.86493 21.213L11.3584 19.5922V16.974L25.4468 8.62078H21.7065L5.05115 18.0961H5.04742L5.00517 28.3195H5.00002L5.00002 29.5662L5.00002 38.2935L5 38.2935V41.161L24.4494 51.8831L36.1688 44.5273H32.6779L24.4494 49.639L6.87015 39.6114V29.5662ZM23.9506 21.213C22.8535 21.213 21.4987 22.4597 20.9584 23.0831C20.9584 23.3585 21.1817 23.5818 21.4571 23.5818H21.9558C22.4961 23.8727 23.7512 24.4545 24.4494 24.4545C25.1475 24.4545 25.7377 23.8727 25.9455 23.5818H27.9403V21.3377C27.0675 21.2961 25.0478 21.213 23.9506 21.213ZM19.7928 24.9968L19.213 25.5766C19.213 26.0586 19.6037 26.4494 20.0857 26.4494H20.4597C20.9252 26.2631 21.2278 25.9611 21.4181 25.6496C21.7061 25.1783 21.2588 24.7039 20.7065 24.7039H20.4999C20.2347 24.7039 19.9804 24.8093 19.7928 24.9968ZM27.8156 32.1845V28.3196L25.4468 26.9481H23.0779L20.8338 28.5689H19.213L17.5922 25.9507C16.8442 26.0754 16.5948 26.0754 15.8468 25.9507C15.0987 25.8261 14.1013 25.2027 14.1013 25.2027C14.1013 25.8413 14.355 26.4538 14.8066 26.9054L16.8442 28.943L14.1013 32.9326H16.5948L17.0935 38.0443L17.7169 41.2858L19.213 38.543C20.5096 42.3331 23.4104 43.6131 24.6987 43.7793C26.2945 43.8791 27.3584 42.9066 27.6909 42.4079L27.8156 38.917H27.4416L25.4468 41.5352H23.9506C23.2857 40.704 21.6317 38.6427 20.3351 37.0469C19.0384 35.451 20.3766 35.3014 21.2078 35.4261C22.9034 35.7253 23.3273 35.052 23.3273 34.678C23.2275 33.8801 22.1221 33.6806 21.5818 33.6806L21.4571 32.9326L24.6987 30.9378L24.2 33.8053L27.8156 32.1845ZM26.1948 24.704H27.9403V26.3248C27.4416 26.2832 26.3943 25.9009 26.1948 24.704ZM25.6961 34.8027C25.8956 33.6058 27.1922 33.556 27.8156 33.6806V35.4261C26.4192 35.7253 25.8208 35.1352 25.6961 34.8027ZM31.8052 15.4779C33.6005 15.7771 33.8831 18.2623 33.8 19.4675C34.6977 19.0685 36.4182 19.3013 37.1662 19.4675C37.9143 19.6338 39.161 19.5922 40.0338 19.0935C40.1341 19.0362 40.236 18.9746 40.3379 18.913L40.338 18.913C41.1226 18.4389 41.9039 17.9668 41.9039 19.4675C41.9039 21.1631 38.9117 21.213 38.9117 21.213C38.9117 21.213 36.5817 21.3586 36.3174 21.241C38.3411 23.6017 40.7166 22.956 41.6545 22.3351C42.9512 21.8364 43.1922 22.9584 43.1507 23.5818C43.1507 24.3797 41.5714 25.161 40.7818 25.4519V33.0571L37.1662 38.1688H32.1792L30.4338 36.4234V33.3065L32.6779 36.174H36.0442L38.6623 32.6831V31.4364C36.2686 32.0348 35.587 30.8545 35.5455 30.1896C35.8447 29.6909 37.9143 29.4831 38.9117 29.4416V25.0779C37.8145 24.0805 37.2909 24.9117 37.1662 25.4519C37.5818 26.3662 38.1636 28.2197 37.1662 28.3195C35.9195 28.4442 35.5455 27.3221 35.5455 26.3247C35.5455 25.5268 34.8805 24.9948 34.5481 24.8286C33.3512 24.0306 31.3065 25.161 30.4338 25.826V21.213C32.7278 19.3179 31.3896 17.8467 30.4338 17.348C30.1428 16.6 30.0099 15.1787 31.8052 15.4779ZM30.4338 29.5662C31.3481 29.8571 32.8945 30.1896 33.1766 30.1896C33.423 30.1896 33.2547 30.478 33.0636 30.8056C32.9645 30.9754 32.8593 31.1556 32.8026 31.3117C32.5948 31.561 32.1543 32.0099 31.5558 31.8104C31.1261 31.6671 30.8206 31.6225 30.621 31.5933C30.5427 31.5818 30.4806 31.5728 30.4338 31.561V29.5662Z" fill="black"/>
</svg>
