<svg width="58" height="58" viewBox="0 0 58 58" fill="none" xmlns="http://www.w3.org/2000/svg">
<path fill-rule="evenodd" clip-rule="evenodd" d="M25.8411 8.38072L46.0631 26.7551C49.8612 30.5531 45.8578 33.53 43.7022 34.1459L32.8213 36.4042L38.467 45.9506C40.3558 52.0275 35.627 52.3834 33.0266 51.8017C30.4261 51.22 12.086 40.5102 12.086 40.5102C10.2793 39.2784 11.1279 38.0808 11.778 37.636C12.4281 37.1912 26.149 31.7849 26.149 31.7849L16.9105 16.1821C13.7079 12.0761 15.7814 8.58602 17.2185 7.35422C20.9139 4.48002 24.5066 6.84097 25.8411 8.38072ZM23.9339 20.9868L34.8148 28.7882L29.6823 30.8412L23.9339 20.9868ZM32.7618 43.057L29.3743 37.1033L19.5199 39.1563L32.7618 43.057Z" fill="black"/>
</svg>
