<svg width="58" height="58" viewBox="0 0 58 58" fill="none" xmlns="http://www.w3.org/2000/svg">
<path fill-rule="evenodd" clip-rule="evenodd" d="M25.1667 9.91667L29 9.4375L32.8333 9.91667L35.2292 8L36.6667 12.3125C40.1167 13.4625 44.1736 17.2639 45.7708 19.0208L48.1667 16.625L49.125 19.5L49.2683 19.7866C51.0647 23.3795 52 27.3413 52 31.3583V40.7364C52 41.4522 51.5975 42.1072 51.0089 42.346C49.6029 43.2359 45.7603 42.8842 45.3741 42.0208C45.0081 41.2029 45.9261 40.0599 46.8427 39.6644C46.8585 39.6628 46.8748 39.6614 46.8915 39.6601C46.8894 39.6556 46.8873 39.6511 46.8853 39.6466C46.8711 39.6523 46.8569 39.6583 46.8427 39.6644L46.8286 39.6659L46.8847 39.6454C46.4186 38.6302 46.25 37.5449 46.25 36.75C42.8 34.8333 43.8542 31.1597 44.8125 29.5625L41.0891 26.5161C40.2452 25.8257 38.9962 25.9773 38.342 26.8495L35.2292 31C40.5958 31 41.2986 33.5556 40.9792 34.8333C40.9792 37.5869 38.6613 39.7738 37.1474 40.7698C36.8567 40.9611 36.6667 41.2783 36.6667 41.6264V43.7678C36.6667 44.1597 36.9052 44.5121 37.2691 44.6576L43.2517 47.0507C43.6156 47.1962 43.8542 47.5486 43.8542 47.9405V48.5176C43.8542 48.9301 43.5902 49.2963 43.1989 49.4268L39.6892 50.5967C39.5915 50.6292 39.4892 50.6458 39.3862 50.6458H34.3343C33.9976 50.6458 33.6857 50.4692 33.5125 50.1806L31.0532 46.0818C30.9639 45.9328 30.9167 45.7624 30.9167 45.5887V41.7812C30.9167 41.3843 31.2385 41.0625 31.6354 41.0625C32.0324 41.0625 32.3542 40.7407 32.3542 40.3437V39.1458H25.6458V40.3437C25.6458 40.7407 25.9676 41.0625 26.3646 41.0625C26.7615 41.0625 27.0833 41.3843 27.0833 41.7812V45.5887C27.0833 45.7624 27.0361 45.9328 26.9468 46.0818L24.4875 50.1806C24.3143 50.4692 24.0024 50.6458 23.6657 50.6458H18.6138C18.5108 50.6458 18.4085 50.6292 18.3108 50.5967L14.8011 49.4268C14.4098 49.2963 14.1458 48.9301 14.1458 48.5176V47.9405C14.1458 47.5486 14.3844 47.1962 14.7483 47.0507L20.7309 44.6576C21.0948 44.5121 21.3333 44.1597 21.3333 43.7678V41.6264C21.3333 41.2783 21.1433 40.9611 20.8526 40.7698C19.3387 39.7738 17.0208 37.5869 17.0208 34.8333C16.7014 33.5556 17.4042 31 22.7708 31L19.658 26.8495C19.0038 25.9773 17.7548 25.8257 16.9109 26.5161L13.1875 29.5625C14.1458 31.1597 15.2 34.8333 11.75 36.75C11.75 37.5872 11.563 38.7465 11.0383 39.8068C11.8502 40.2886 12.5579 41.2859 12.2291 42.0208C11.8366 42.8981 8.14828 43.2471 6.89421 42.3021C6.3588 42.0338 6 41.4122 6 40.7364V27.7386C6 26.102 6.38103 24.4879 7.11291 23.0242L8.875 19.5L9.83333 16.625L12.2292 19.0208C13.8264 17.2639 17.8833 13.4625 21.3333 12.3125L22.7708 8L25.1667 9.91667ZM30.4375 18.5417L33.3125 15.6667V18.5417H30.4375ZM24.2083 15.6667L27.0833 18.5417H24.2083V15.6667Z" fill="black"/>
</svg>
