<svg width="58" height="58" viewBox="0 0 58 58" fill="none" xmlns="http://www.w3.org/2000/svg">
<path d="M28.8969 8L38.9636 14.704L38.7574 22.9552L28.8969 16.4574L19.0578 22.9551L18.8515 14.704L28.8969 8Z" fill="black"/>
<path d="M28.8969 29.2467L19.0578 35.7445L18.8515 27.4933L28.8969 20.7893L38.9636 27.4932L38.7574 35.7443L28.8969 29.2467Z" fill="black"/>
<path d="M28.8969 42.9642L19.0578 49.462L18.8515 41.2108L28.8969 34.5068L38.9636 41.2107L38.7574 49.4618L28.8969 42.9642Z" fill="black"/>
<path d="M42.2018 13.157L42.2018 34.6097C43.852 34.7129 47.1525 35.7855 47.1525 39.251V44.408L52 47.7084L52 26.2557C50.3498 26.1525 47.0493 25.0799 47.0493 21.6144V16.4574L42.2018 13.157Z" fill="black"/>
<path d="M15.7982 13.157L10.9507 16.4574V21.6144C10.9507 25.0799 7.65024 26.1525 6.00001 26.2557L6 47.7084L10.8475 44.408V39.251C10.8475 35.7855 14.148 34.7129 15.7982 34.6097L15.7982 13.157Z" fill="black"/>
</svg>
