<svg width="58" height="58" viewBox="0 0 58 58" fill="none" xmlns="http://www.w3.org/2000/svg">
<path fill-rule="evenodd" clip-rule="evenodd" d="M28.9914 8L37.9611 16.9697C39.3633 18.8668 38.889 20.7157 38.4766 21.4031L35.796 24.0837L41.5696 29.8573L28.7852 42.6417L16.31 29.9604L22.0837 24.1868L19.4031 21.5062C18.9907 20.8188 18.5164 18.9699 19.9186 17.0728L28.9914 8ZM28.9914 21.9186L26.7232 24.1868L28.9914 26.2488L31.1565 24.0837L28.9914 21.9186ZM28.9914 17.1759L33.6309 21.8155L35.3836 20.0627C35.796 19.6503 35.2805 18.9974 34.9712 18.7224L28.9914 12.7426L22.9085 18.8255C22.5992 19.1005 22.0837 19.7534 22.4961 20.1658L24.2488 21.9186L28.9914 17.1759ZM28.7852 35.6309L35.6929 28.7232L33.5278 26.5581L28.9914 31.0945L24.3519 26.6612L22.1868 28.8263L28.7852 35.6309Z" fill="black"/>
<path d="M51.9828 24.2899L47.3433 25.8364C49.9826 22.7021 48.9929 18.4131 48.1681 16.7635C47.4464 15.5263 47.034 13.7393 47.034 12.7426L44.972 14.5984C41.5078 17.3203 41.7415 22.1935 42.2913 24.2899C42.8687 26.5168 45.4187 29.6855 46.6216 30.9914L40.3324 37.0743C34.5588 42.6417 31.2596 47.0063 30.5379 48.9309C30.9503 49.7557 35.4524 49.9619 37.6518 49.9619C42.4357 49.9619 46.7247 46.0441 48.2712 44.0851C48.596 43.6737 49.0646 43.0055 49.5827 42.2667C50.3804 41.1294 51.2953 39.8249 51.9828 39.0332H45.5906L50.0239 36.0433C52.5808 33.8988 52.1203 28.7575 51.5704 26.455C51.4054 25.1353 51.7766 24.4617 51.9828 24.2899Z" fill="black"/>
<path d="M10.6567 25.7333L6.01721 24.1868C6.22342 24.3586 6.59458 25.0322 6.42961 26.3519C5.87975 28.6544 5.41923 33.7957 7.97612 35.9402L12.4094 38.9301H6.01721C6.70471 39.7218 7.61952 41.0262 8.41716 42.1635C8.93532 42.9023 9.40402 43.5706 9.72883 43.982C11.2753 45.941 15.5643 49.8588 20.3482 49.8588C22.5476 49.8588 27.0497 49.6526 27.4621 48.8278C26.7404 46.9032 23.4412 42.5386 17.6676 36.9712L11.3784 30.8883C12.5813 29.5824 15.1313 26.4137 15.7087 24.1868C16.2585 22.0904 16.4922 17.2172 13.028 14.4953L10.966 12.6395C10.966 13.6362 10.5536 15.4232 9.83193 16.6604C9.00713 18.31 8.01736 22.599 10.6567 25.7333Z" fill="black"/>
</svg>
