<svg width="58" height="58" viewBox="0 0 58 58" fill="none" xmlns="http://www.w3.org/2000/svg">
<path d="M33.553 37.1997C31.0638 38.1662 28.3044 37.6926 26.9154 37.1782L28.5189 44.6615C36.9002 48.6811 42.7016 43.5568 44.5546 40.4922C47.4624 35.8739 44.5546 27.3786 42.7372 23.7082C48.7433 24.5635 52.0816 21.7127 53 20.1804L49.2584 16.7595C48.6597 17.7002 46.657 18.0067 45.7305 18.0423C42.3951 18.2989 40.2071 17.294 39.5301 16.7595C39.5301 16.7595 38.6748 15.4766 38.5679 13.2316C38.461 10.9866 39.0312 9.24054 39.5301 8.63474L35.3608 5C33.5648 6.1118 32.902 9.48998 32.902 11.4143C32.6882 14.6214 35.1114 22.6748 36.7506 26.4878C37.7212 29.2378 37.5812 31.594 37.1398 33.2456L28.7572 24.4585C27.7423 23.3946 26.057 23.3549 24.9932 24.3699C23.9293 25.3848 23.8896 27.07 24.9045 28.1339L33.553 37.1997Z" fill="black"/>
<path d="M21.784 22.3183C24.6062 19.1539 29.1603 19.7882 31.0846 20.5009L29.4811 13.0176C21.0998 8.99803 15.2984 14.1223 13.4454 17.1869C10.5376 21.8052 13.4454 30.3005 15.2628 33.9709C9.25667 33.1156 5.91838 35.9664 5 37.4987L8.74165 40.9196C9.34031 39.9789 11.343 39.6724 12.2695 39.6368C15.6049 39.3802 17.7929 40.3851 18.4699 40.9196C18.4699 40.9196 19.3252 42.2025 19.4321 44.4475C19.539 46.6925 18.9688 48.4386 18.4699 49.0443L22.6392 52.6791C24.4352 51.5673 25.098 48.1891 25.098 46.2648C25.3118 43.0577 22.8886 35.0043 21.2494 31.1913C19.71 26.8297 20.9644 23.4586 21.784 22.3183Z" fill="black"/>
</svg>
