<svg width="58" height="58" viewBox="0 0 58 58" fill="none" xmlns="http://www.w3.org/2000/svg">
<path fill-rule="evenodd" clip-rule="evenodd" d="M33.5506 9.24416L25.3221 14.3558H21.8312L33.5506 7L53 17.7221V19.0935V20.5896V29.3169V30.5636H52.9948L52.9526 40.787H52.9488L36.2935 50.2623H32.5532L46.6416 41.9091V39.2909L49.1351 37.6701L49.2123 37.635V29.3169H51.1299V19.2717L33.5506 9.24416ZM6.87015 29.5662H8.78768V21.2481L8.86493 21.213L11.3584 19.5922V16.974L25.4468 8.62078H21.7065L5.05115 18.0961H5.04742L5.00517 28.3195H5.00002L5.00002 29.5662L5.00002 38.2935L5 38.2935V41.161L24.4494 51.8831L36.1688 44.5273H32.6779L24.4494 49.639L6.87015 39.6114V29.5662ZM27.7881 27.8526V20.3721C27.5803 20.1643 26.7907 19.5742 25.0453 19.7487C24.5593 19.7973 23.9407 19.9748 23.3667 20.2263C21.9453 20.8494 22.0803 22.4535 22.844 23.8046L23.2998 24.6111L21.8196 23.2447C19.6686 21.2592 15.9694 20.2604 15.3206 23.115C14.8219 25.3093 15.279 31.8422 15.5699 34.8345C16.1933 37.2864 17.7642 42.2651 19.0609 42.5643V39.1981C19.4764 40.3202 20.9559 42.5643 23.5492 42.5643C26.1424 42.5643 27.6219 40.2371 28.0375 39.0734V35.7072L25.918 39.1981C25.6686 39.4474 24.6463 40.3202 23.5492 40.3202C23.5492 40.3202 23.092 40.3474 22.8011 40.3202C20.5977 40.1136 19.1855 35.9565 19.1855 35.9565V33.5877L19.3102 33.7124C19.5541 33.875 19.8406 33.9617 20.1338 33.9617H21.7671C22.0628 33.9617 22.3024 33.7221 22.3024 33.4265C22.3024 33.2068 22.2377 32.99 22.0939 32.8239C21.7222 32.3946 21.0828 31.8422 20.4323 31.8422H19.1855V29.9721C19.5596 28.7254 20.5819 26.2319 21.679 26.2319C22.0946 26.3565 23.0505 27.0048 23.5492 28.6007C23.757 28.8916 24.397 29.249 25.2946 28.3513C25.918 27.9773 26.9902 27.8526 27.7881 27.8526ZM25.2946 32.715C25.9928 31.917 27.2479 31.8838 27.7881 31.9669C27.8712 32.2163 27.9876 32.8895 27.7881 33.5877C27.5388 34.4604 25.2946 34.2111 25.0453 33.837C24.8458 33.5378 25.1284 32.9643 25.2946 32.715ZM34.174 16.7247C35.2712 16.7247 36.626 17.9714 37.1662 18.5948C37.1662 18.8702 36.943 19.0935 36.6675 19.0935H36.1688C35.6286 19.3844 34.3735 19.9662 33.6753 19.9662C32.9771 19.9662 32.387 19.3844 32.1792 19.0935H30.1844V16.8494C31.0571 16.8078 33.0769 16.7247 34.174 16.7247ZM38.3319 20.5085L38.9117 21.0883C38.9117 21.5703 38.521 21.961 38.039 21.961H37.6649C37.1994 21.7748 36.8969 21.4728 36.7066 21.1613C36.4186 20.69 36.8659 20.2156 37.4182 20.2156H37.6247C37.89 20.2156 38.1443 20.3209 38.3319 20.5085ZM30.3091 27.6962V23.8312L32.6779 22.4598H35.0468L37.2909 24.0806H38.9117L40.5325 21.4624C41.2805 21.5871 41.5299 21.5871 42.2779 21.4624C43.026 21.3377 44.0234 20.7144 44.0234 20.7144C44.0234 21.353 43.7697 21.9654 43.3181 22.417L41.2805 24.4546L44.0234 28.4442H41.5299L41.0312 33.5559L40.4078 36.7975L38.9117 34.0546C37.6151 37.8447 34.7143 39.1247 33.426 39.291C31.8301 39.3907 30.7662 38.4182 30.4338 37.9195L30.3091 34.4286H30.6831L32.6779 37.0468H34.174C34.839 36.2156 36.493 34.1544 37.7896 32.5585C39.0862 30.9627 37.7481 30.8131 36.9169 30.9377C35.2213 31.2369 34.7974 30.5637 34.7974 30.1897C34.8971 29.3918 36.0026 29.1923 36.5429 29.1923L36.6675 28.4442L33.426 26.4494L33.9247 29.3169L30.3091 27.6962ZM31.9299 20.2157H30.1844V21.8364C30.6831 21.7949 31.7304 21.4125 31.9299 20.2157ZM32.4286 30.3144C32.2291 29.1175 30.9325 29.0676 30.3091 29.1923V30.9377C31.7055 31.2369 32.3039 30.6468 32.4286 30.3144Z" fill="black"/>
</svg>
