<svg width="58" height="58" viewBox="0 0 58 58" fill="none" xmlns="http://www.w3.org/2000/svg">
<path fill-rule="evenodd" clip-rule="evenodd" d="M33.5506 9.24416L25.3221 14.3558H21.8312L33.5506 7L53 17.7221V19.0935V20.5896V29.3169V30.5636H52.9948L52.9526 40.787H52.9488L36.2935 50.2623H32.5532L46.6416 41.9091V39.2909L49.1351 37.6701L49.2123 37.635V29.3169H51.1299V19.2717L33.5506 9.24416ZM6.87013 29.5662H8.78768V21.2481L8.86493 21.213L11.3584 19.5922V16.974L25.4468 8.62078H21.7065L5.05115 18.0961H5.04742L5.00517 28.3195H5V38.2935V39.7896V41.161L24.4494 51.8831L36.1688 44.5273H32.6779L24.4494 49.639L6.87013 39.6114V29.5662ZM30.3091 22.4597V16.3506C31.2234 15.9766 33.3512 15.2286 34.5481 15.2286C36.626 15.6026 40.9813 16.7496 41.7792 18.3455C42.1948 19.1351 42.9013 21.1881 42.4026 23.0831V26.3247C42.8597 26.3662 43.799 26.7236 43.8987 27.8208C43.9984 28.9179 43.9403 30.3558 43.8987 30.9377C43.4416 31.7688 42.2031 33.506 40.9065 33.8052C39.7844 35.1766 37.5652 38.3434 37.6649 40.039H31.0571L29.9351 37.2961V33.8052C30.6416 34.3039 32.1294 35.8 32.4286 37.7948H36.1688C36.9169 35.8831 38.8119 31.9849 40.4078 31.6857C42.0036 31.3865 42.1532 29.1507 42.0286 28.0701H40.9065V22.4597C39.9506 22.3766 37.5403 22.3849 35.5455 23.0831C33.5506 23.7813 31.2234 22.9584 30.3091 22.4597ZM33.1766 29.3169H30.1844V31.0623C30.2675 31.1455 30.6332 31.3117 31.4312 31.3117C32.2291 31.3117 32.9273 30.3974 33.1766 29.9403V29.3169ZM39.5351 26.3247L37.4156 28.8182L35.4208 29.4416L36.5429 30.813L34.5481 34.4286L38.413 30.813L40.1584 29.3169L38.9117 28.4442L39.5351 26.3247ZM27.9402 21.4623V25.4519V25.7013C27.3418 25.2026 24.7818 26.4078 23.5766 27.0727C23.1776 26.2748 21 25.6597 19.961 25.4519C17.0686 26.5491 16.8442 31.8104 17.0935 34.3039L16.3455 34.6779L13.8519 33.3065L15.5974 30.439L13.8519 30.0649L16.3455 27.0727L14.974 26.0753L18.2156 24.0805C18.0161 21.2878 20.1273 20.174 21.2078 19.9662V21.961L23.5766 20.5896C25.6712 19.8914 27.3584 20.8805 27.9402 21.4623ZM27.6909 30.5636C26.9429 30.813 25.3221 31.2369 24.8234 30.9377V32.8078C25.6545 32.974 27.4416 33.0073 27.9403 31.8104C28.439 30.6135 27.9818 30.4805 27.6909 30.5636ZM20.4597 30.9376C21.1579 31.1371 21.9143 30.8545 22.2052 30.6883C22.2052 30.6883 22.3995 31.1334 22.4545 31.4364C22.5242 31.8196 22.4545 32.4338 22.4545 32.4338C22.0805 32.8078 21.0831 33.3314 20.0857 32.4338C19.0883 31.5361 18.4234 32.0597 18.2156 32.4338C18.0078 32.0597 17.7917 31.187 18.5896 30.6883C19.257 30.2712 19.4778 30.4123 19.8123 30.626C19.9778 30.7317 20.171 30.8551 20.4597 30.9376ZM26.9429 37.1714L27.9403 36.174L28.0649 36.0494V41.161L25.9455 43.2805H21.2078L17.2182 38.5429V35.1766H18.4649L20.4597 37.2961L21.5818 34.9273L23.826 37.2961L25.9455 34.9273L26.9429 37.1714ZM19.9611 38.0442H26.8182C27.026 38.7507 27.1922 40.1886 26.1948 40.2883C25.1974 40.3881 24.7818 39.7481 24.6987 39.4156H22.3299C21.7314 40.812 20.5013 40.2468 19.9611 39.7896V38.0442Z" fill="black"/>
</svg>
