<svg width="58" height="58" viewBox="0 0 58 58" fill="none" xmlns="http://www.w3.org/2000/svg">
<path d="M29.1258 51L36.1628 46.2397L33.8586 40.0306H24.393L22.2958 46.2397L29.1258 51Z" fill="black"/>
<path d="M43.4649 7L34.9712 7.19221L32.9547 13.3315L40.9231 18.8162L46.6298 14.7002L43.4649 7Z" fill="black"/>
<path d="M14.5851 7L23.0787 7.19221L25.0952 13.3315L17.1269 18.8162L11.4201 14.7002L14.5851 7Z" fill="black"/>
<path d="M6 34.3607L8.6626 26.2928L15.1231 26.1558L18.0436 35.3779L12.4413 39.635L6 34.3607Z" fill="black"/>
<path d="M52.1798 34.4474L45.5089 39.7085L40.0952 35.4773L43.1997 26.4951H49.7159L52.1798 34.4474Z" fill="black"/>
<path fill-rule="evenodd" clip-rule="evenodd" d="M40.5091 23.209L29.1258 14.9873L17.7424 23.209L22.0905 36.5121H36.1611L40.5091 23.209ZM29.2293 30.303C31.1153 30.303 32.6443 28.7741 32.6443 26.888C32.6443 25.002 31.1153 23.473 29.2293 23.473C27.3432 23.473 25.8143 25.002 25.8143 26.888C25.8143 28.7741 27.3432 30.303 29.2293 30.303Z" fill="black"/>
</svg>
