<svg width="58" height="58" viewBox="0 0 58 58" fill="none" xmlns="http://www.w3.org/2000/svg">
<path d="M12.2354 37.5304L19.1367 42.8949L29.0001 35.509L38.848 42.8949L45.7648 37.5304L29.0001 25.5264L12.2354 37.5304Z" fill="black"/>
<path d="M22.2942 45.7516L29.5669 51.0002L36.8236 45.7516L29.5669 40.5791L22.2942 45.7516Z" fill="black"/>
<path d="M48 12.6013L40.0287 7C34.7406 12.6013 29 13.9651 29 13.9651C29 13.9651 23.2594 12.6013 17.9713 7L10 12.6013C10 12.6013 15.9278 21.4823 11.2011 32.4738L29 20.3133L46.7989 32.4738C42.0723 21.4823 48 12.6013 48 12.6013Z" fill="black"/>
</svg>
