<svg width="58" height="58" viewBox="0 0 58 58" fill="none" xmlns="http://www.w3.org/2000/svg">
<path fill-rule="evenodd" clip-rule="evenodd" d="M33.5506 9.24416L25.3221 14.3558H21.8312L33.5506 7L53 17.7221V19.0935V20.5896V29.3169V30.5636H52.9948L52.9526 40.787H52.9488L36.2935 50.2623H32.5532L46.6416 41.9091V39.2909L49.1351 37.6701L49.2123 37.635V29.3169H51.1299V19.2717L33.5506 9.24416ZM6.87013 29.5662H8.78768V21.2481L8.86493 21.213L11.3584 19.5922V16.974L25.4468 8.62078H21.7065L5.05115 18.0961H5.04742L5.00517 28.3195H5V38.2935V39.7896V41.161L24.4494 51.8831L36.1688 44.5273H32.6779L24.4494 49.639L6.87013 39.6114V29.5662ZM33.8481 19.2589C33.9313 18.0538 33.6487 15.5686 31.8533 15.2693C30.058 14.9701 30.191 16.3914 30.4819 17.1395C31.4378 17.6382 32.7759 19.1094 30.4819 21.0044V25.6174C31.3546 24.9525 33.3993 23.8221 34.5962 24.62C34.9287 24.7862 35.5936 25.3182 35.5936 26.1161C35.5936 27.1135 35.9676 28.2356 37.2144 28.1109C38.2118 28.0112 37.63 26.1577 37.2144 25.2434C37.3391 24.7031 37.8627 23.872 38.9598 24.8694V29.233C37.9624 29.2746 35.8928 29.4823 35.5936 29.981C35.6352 30.646 36.3167 31.8262 38.7105 31.2278V32.4746L36.0923 35.9655H32.7261L30.4819 33.0979V36.2148L32.2274 37.9603H37.2144L40.83 32.8486V25.2434C41.6196 24.9525 43.1988 24.1712 43.1988 23.3733C43.2404 22.7499 42.9993 21.6278 41.7027 22.1265C40.7647 22.7474 38.3892 23.3931 36.3655 21.0324C36.6299 21.15 38.9598 21.0044 38.9598 21.0044C38.9598 21.0044 41.952 20.9545 41.952 19.2589C41.952 17.7583 41.1708 18.2303 40.3861 18.7044L40.3861 18.7045C40.2842 18.766 40.1822 18.8276 40.0819 18.8849C39.2092 19.3836 37.9624 19.4252 37.2144 19.2589C36.4663 19.0927 34.7458 18.86 33.8481 19.2589ZM33.2248 29.981C32.9427 29.981 31.3962 29.6486 30.4819 29.3577V31.3525C30.5288 31.3642 30.5908 31.3733 30.6692 31.3847C30.8688 31.4139 31.1742 31.4586 31.604 31.6018C32.2024 31.8013 32.643 31.3525 32.8508 31.1031C32.9075 30.9471 33.0127 30.7668 33.1117 30.597C33.3028 30.2695 33.4711 29.981 33.2248 29.981ZM27.9464 25.3273L24.3308 21.7117L20.3412 26.0753L18.2217 24.0805C18.0555 25.2857 17.5485 27.6712 16.8503 27.5714C16.1521 27.4717 15.562 27.1143 15.3542 26.9481C15.2711 28.0286 15.3542 30.439 16.3516 31.4364H14.3568C14.2736 32.5584 15.0051 35.2265 18.5957 36.9221V37.9195C18.0555 38.1273 16.8503 38.3184 16.3516 37.4208C16.3516 38.7091 17.1495 41.3855 20.3412 41.7844C21.2139 41.7844 23.1838 41.4852 24.0814 40.2883C24.6633 40.787 26.2508 41.7345 27.9464 41.5351V34.8026C27.0321 35.0104 25.1537 35.027 24.9542 33.4312C25.0789 32.4338 25.8518 30.4639 27.9464 30.5636V25.3273ZM25.5714 36.0494L24.6987 35.3013H23.9507L22.9533 36.0494C23.0779 36.5065 23.5517 37.4208 24.4494 37.4208C24.865 37.2961 25.6712 36.8473 25.5714 36.0494ZM21.0831 30.6883C22.7787 30.6883 23.4519 32.1844 23.5766 32.9325C23.7761 35.027 22.0805 35.2182 21.2078 35.052C18.7143 35.1517 18.2571 33.9299 18.3403 33.3065C18.5481 32.4338 19.3875 30.6883 21.0831 30.6883Z" fill="black"/>
</svg>
