<svg width="58" height="58" viewBox="0 0 58 58" fill="none" xmlns="http://www.w3.org/2000/svg">
<path fill-rule="evenodd" clip-rule="evenodd" d="M25.3221 14.3558L33.5506 9.24416L51.1299 19.2717V29.3169H49.2123V37.635L49.1351 37.6701L46.6416 39.2909V41.9091L32.5532 50.2623H36.2935L52.9488 40.787H52.9526L52.9948 30.5636H53V29.3169V20.5896V19.0935V17.7221L33.5506 7L21.8312 14.3558H25.3221ZM8.78768 29.5662H6.87015V39.6114L24.4494 49.639L32.6779 44.5273H36.1688L24.4494 51.8831L5 41.161V38.2935L5.00002 38.2935L5.00002 29.5662L5.00002 28.3195H5.00517L5.04742 18.0961H5.05115L21.7065 8.62078H25.4468L11.3584 16.974V19.5922L8.86493 21.213L8.78768 21.2481V29.5662ZM25.5088 24.4545C25.808 23.8561 26.9633 23.374 27.5036 23.2078H27.8156V31.8104H27.3169C26.6187 31.8104 24.5325 30.2312 23.5766 29.4416C22.0309 29.4416 20.9378 32.2675 20.5844 33.6805V36.2987C20.8964 37.8447 25.1974 41.161 25.8208 41.161C26.3195 41.161 27.3584 40.6623 27.8156 40.413V42.0338C27.8571 42.4493 27.454 43.2805 25.5088 43.2805C23.5636 43.2805 21.5816 40.787 20.8338 39.5403H20.2724V42.2831L18.2156 41.161C16.5701 39.4655 17.53 36.4649 18.2156 35.1766C18.7143 33.5808 18.2571 33.6805 17.9662 33.9299C17.8416 34.2623 17.4925 34.9273 17.0935 34.9273C16.6945 34.9273 16.3868 34.2623 16.2828 33.9299C15.2854 30.8379 18.5269 26.4909 20.2724 24.7039C22.2672 22.9086 24.5945 23.7896 25.5088 24.4545ZM21.7065 34.0545H25.0727C25.0727 35.3512 24.2416 35.7169 23.826 35.6753H23.2026C21.906 35.6753 21.6649 34.5948 21.7065 34.0545ZM26.5688 34.1792H27.8156V35.6753C26.7184 35.6753 26.5273 34.6779 26.5688 34.1792ZM27.6909 37.9195C27.6078 37.7532 27.2919 37.4208 26.6935 37.4208C26.0951 37.4208 25.9455 37.7532 25.9455 37.9195L25.6961 37.7948C25.613 37.6701 25.3719 37.4208 25.0727 37.4208C24.6987 37.4208 23.826 37.6701 23.9506 38.0442C23.7844 38.2935 23.9756 38.7922 26.0701 38.7922C26.6104 38.8338 27.6909 38.7174 27.6909 37.9195ZM16.7195 36.7974C16.7195 37.9943 15.0571 39.1662 14.226 39.5403H13.9766V37.0468C14.1844 36.5481 14.7496 35.4759 15.3481 35.1766C16.0961 34.8026 16.7195 35.3013 16.7195 36.7974ZM30.4338 22.8338V16.7247C31.3481 16.3506 33.4758 15.6026 34.6727 15.6026C36.7506 15.9766 41.106 17.1236 41.9039 18.7195C42.3195 19.5091 43.026 21.5621 42.5273 23.4571V26.6987C42.9844 26.7403 43.9236 27.0977 44.0234 28.1948C44.1231 29.2919 44.0649 30.7299 44.0234 31.3117C43.5662 32.1429 42.3278 33.88 41.0312 34.1792C39.9091 35.5506 37.6899 38.7174 37.7896 40.413H31.1818L30.0597 37.6701V34.1792C30.7662 34.6779 32.254 36.174 32.5532 38.1688H36.2935C37.0416 36.2571 38.9366 32.359 40.5325 32.0597C42.1283 31.7605 42.2779 29.5247 42.1532 28.4442H41.0312V22.8338C40.0753 22.7506 37.6649 22.759 35.6701 23.4571C33.6753 24.1553 31.3481 23.3325 30.4338 22.8338ZM33.3013 29.6909H30.3091V31.4364C30.3922 31.5195 30.7579 31.6857 31.5558 31.6857C32.3538 31.6857 33.0519 30.7714 33.3013 30.3143V29.6909ZM39.6597 26.6987L37.5403 29.1922L35.5455 29.8156L36.6675 31.187L34.6727 34.8026L38.5377 31.187L40.2831 29.6909L39.0364 28.8182L39.6597 26.6987Z" fill="black"/>
</svg>
