<svg width="58" height="58" viewBox="0 0 58 58" fill="none" xmlns="http://www.w3.org/2000/svg">
<path d="M28.6899 52V31.469C31.7749 31.5754 33.2287 33.5257 33.5833 34.7667C34.6046 38.0006 32.165 41.2913 30.8175 42.5323L35.6045 44.8727L34.0088 52H28.6899Z" fill="black"/>
<path d="M28.6899 52V31.469C25.605 31.469 24.1511 33.5257 23.7965 34.7667C22.7753 38.0006 25.2149 41.2913 26.5624 42.5323L21.7754 44.8727L23.371 52H28.6899Z" fill="black"/>
<path d="M34.5407 30.0861C35.0513 28.2139 37.2356 26.8239 38.264 26.3629C35.7109 23.7247 35.3563 20.6539 35.4981 19.4483C35.7534 15.7889 39.3632 14.6613 41.1362 14.5549C45.2211 14.4698 47.0224 17.0725 47.3061 18.3845C47.838 21.5759 46.0296 24.6963 44.753 26.1501C48.5826 27.0011 50.7457 31.8236 51.3485 34.1285C52.4548 37.5326 50.0365 40.1566 48.689 41.0431L38.7959 46.7875L37.9448 42.7451L42.3063 39.341C45.1147 37.5539 44.753 34.7668 44.2211 33.5966L37.0938 38.8091C38.2001 35.5752 35.8527 31.6463 34.5407 30.0861Z" fill="black"/>
<path d="M31.3494 28.5968C31.3494 27.8309 32.8387 26.292 33.5833 25.6182C31.8813 22.2141 28.4063 20.2284 26.8815 19.6611C27.9878 18.7249 28.9027 16.8598 29.2218 16.0442C30.4133 12.2146 28.2044 8.38498 26.3496 7.3212C20.5626 4.00221 16.4919 7.71126 15.1799 9.98066C13.1375 14.3209 15.6054 18.5264 17.0947 20.0866C13.4353 20.5121 10.4638 23.8098 9.4355 25.4055C8.40718 27.0012 7.09518 32.5328 7.09518 32.5328C4.88252 38.0645 6.52783 41.0785 7.62707 41.8941L18.4776 48.1704L20.3924 43.4898L16.0309 39.4474C13.2226 36.9794 13.9388 34.4476 14.648 33.4902L20.818 39.1283C19.1159 33.5115 22.8746 30.0507 24.9667 29.0223C26.839 27.7458 30.0019 28.2068 31.3494 28.5968Z" fill="black"/>
</svg>
