<svg width="58" height="58" viewBox="0 0 58 58" fill="none" xmlns="http://www.w3.org/2000/svg">
<path fill-rule="evenodd" clip-rule="evenodd" d="M40.7277 7.93564L51.3168 25.9257L40.1584 22.396L22.396 6L40.7277 15.2228V7.93564ZM6 19.0941L18.8663 38.5644V52L9.64356 42.8911L6 19.0941ZM19.1355 30.7287C18.1095 29.2541 19.6283 26.3627 22.5998 23.8052L18.838 22.4424L18.6386 15.1088L25.9257 17.6138V21.4779C29.3913 19.5361 32.6804 19.0958 33.7158 20.5838C34.4977 21.7077 33.8015 23.6547 32.1104 25.6495L49.7228 33.3267L44.2574 51.6584L25.9257 51.4306L24.2929 31.0379C21.901 31.875 19.9015 31.8296 19.1355 30.7287ZM40.0445 39.4752L28.5784 28.7998L28.498 28.8553L34.5833 43.1631L40.0445 45.6237V39.4752ZM14.5396 16.703L7.70791 9.64359L10.099 19.8911L14.7673 22.2822L14.5396 16.703Z" fill="black"/>
</svg>
