<svg width="58" height="58" viewBox="0 0 58 58" fill="none" xmlns="http://www.w3.org/2000/svg">
<path d="M21.3185 10.6102L29.1047 6L36.7884 10.6102L29.1047 15.6303L21.3185 10.6102Z" fill="black"/>
<path d="M18.4499 12.5568L29.3096 19.4209L40.0668 12.5568L45.5991 15.7327L50.5167 42.2673L45.5991 40.4232L42.7305 23.7238L29.3096 30.6904L15.7862 23.7238L12.9176 40.4232L8 42.2673L12.9176 15.7327L18.4499 12.5568Z" fill="black"/>
<path d="M39.9644 28.7439L30.1292 33.9688L38.8374 37.657L41.3987 34.3786L39.9644 28.7439Z" fill="black"/>
<path d="M28.0802 33.9688L18.245 28.7439L16.8107 34.3786L19.3719 37.657L28.0802 33.9688Z" fill="black"/>
<path fill-rule="evenodd" clip-rule="evenodd" d="M29.3176 37.148L29.3257 37.1448V37.1513L41.706 42.1648C43.673 42.9614 42.6622 45.7068 41.9109 46.98C41.0913 49.029 39.4521 49.6437 38.6325 49.2339L36.0713 47.7996L35.8664 48.1069C34.3146 51.0472 30.8704 51.9256 29.3257 51.9993L29.3096 52C27.7649 51.9263 24.3207 51.0472 22.7689 48.1069L22.564 47.7996L20.0027 49.2339C19.1831 49.6437 17.5439 49.029 16.7243 46.98C15.9731 45.7068 14.9622 42.9614 16.9292 42.1648L29.3096 37.1513V37.1448L29.3176 37.148ZM33.6125 45.4432C33.6125 47.1972 31.686 48.6191 29.3096 48.6191C26.9332 48.6191 25.0067 47.1972 25.0067 45.4432C25.0067 43.6892 26.9332 42.2673 29.3096 42.2673C31.686 42.2673 33.6125 43.6892 33.6125 45.4432Z" fill="black"/>
</svg>
