<svg width="58" height="58" viewBox="0 0 58 58" fill="none" xmlns="http://www.w3.org/2000/svg">
<path fill-rule="evenodd" clip-rule="evenodd" d="M25.3221 14.3558L33.5507 9.24416L51.1299 19.2717V29.3171H49.2123V37.6351L49.1351 37.6703L46.6416 39.291V41.9092L32.5533 50.2625H36.2935L52.9487 40.7872H52.9526L52.9949 30.5639H53V29.3192L53 29.3171L53 19.0938L53 17.7221L33.5507 7L21.8312 14.3558H25.3221ZM8.78768 29.5665H6.87014V39.6113L24.4494 49.6389L32.6779 44.5272H36.1688L24.4494 51.8831L5 41.161V38.2935L5.00001 28.3192H5.00517L5.04742 18.0964H5.05085L21.7065 8.62086H25.4468L11.3584 16.9741V19.5923L8.86493 21.2131L8.78768 21.2482V29.5665ZM30.1844 20.8453V28.5751L32.3039 29.1985V30.4453H30.1844V32.3154H31.4312L34.4234 35.6816L37.5403 32.3154H38.787V32.9388L36.6675 36.1803V37.0531H39.5351L43.4 27.079L41.0312 24.4609C40.4909 23.0894 38.8618 20.2468 36.6675 19.8479H35.4208V21.5933H33.052V19.8479C32.387 19.8063 30.8826 19.9476 30.1844 20.8453ZM41.0312 27.5711L36.4182 29.3166V30.5633H39.9091L41.0312 27.5711ZM30.1844 33.556L32.0545 36.7975H30.1844V33.556ZM36.4182 18.5948C40.0088 19.1933 41.9455 23.5818 42.652 25.7013C45.3948 24.3298 43.4 21.961 42.5273 21.7117C43.3252 20.9904 42.8597 19.9151 42.5273 19.4675C41.5299 18.3704 40.4494 18.4286 40.0338 18.5948C40.2 18.0545 40.2582 16.8493 39.161 16.3506C38.0639 15.8519 36.7091 16.3922 36.1688 16.7247C36.2686 15.7273 35.1299 15.3117 34.5481 15.2286C32.7527 15.1288 32.1377 16.1844 32.0545 16.7247C31.8551 16.0265 30.7247 16.0182 30.1844 16.1013V19.4675C31.88 18.3704 35.0468 18.4286 36.4182 18.5948ZM27.6909 20.8389V24.3298L23.452 20.5896L16.3455 28.0701H15.2234C15.2234 28.0701 14.8494 26.574 15.2234 25.2026C15.4961 24.2027 19.0826 21.4796 21.2474 19.836C22.0517 19.2253 22.6597 18.7637 22.8286 18.5948C23.452 17.9714 24.0753 18.5948 24.0753 18.5948L27.6909 20.8389ZM26.6935 25.2028L23.5766 28.195L20.4597 25.4521L16.3811 29.4142L16.3602 29.4346C16.1762 29.6128 15.9714 29.8114 15.9714 30.0651C15.9714 30.309 16.0436 30.5474 16.1789 30.7504L16.7195 31.5612C17.6338 30.8963 20.1855 29.5914 23.0779 29.6911L26.0701 29.8158L26.6935 29.9404L27.5662 30.1898L27.6909 26.4495L26.6935 25.2028ZM16.9688 32.5587C16.9688 32.06 19.5455 31.3535 20.8338 31.0626C20.8338 31.0626 22.4249 30.8133 23.452 30.8133C24.479 30.8133 26.0701 31.0626 26.0701 31.0626L27.5662 31.4366V33.6808H19.3377C18.5481 33.5146 16.9688 33.0574 16.9688 32.5587ZM23.5766 22.4596L21.4571 24.5791L23.5766 26.6985L25.6961 24.5791L23.5766 22.4596ZM26.6935 35.0518V37.0466C26.5688 38.418 25.1974 40.0388 23.7013 40.0388C23.2442 40.1635 20.7091 39.6648 20.3351 37.1713V34.9271H17.0935V41.1609L17.0911 41.173C17.0124 41.5666 16.7913 41.9174 16.4701 42.1583H17.9662C18.4234 42.1167 19.5371 41.7344 20.3351 40.5375C20.7922 41.1193 22.0805 42.283 23.5766 42.283C25.0727 42.283 26.4441 40.87 26.9429 40.1635H27.3169V40.9115H27.8156V34.9271H26.6935V35.0518Z" fill="black"/>
</svg>
