<svg width="58" height="58" viewBox="0 0 58 58" fill="none" xmlns="http://www.w3.org/2000/svg">
<path d="M38.4612 40.0155C40.1641 34.992 36.6874 30.2594 34.7361 28.5211C32.7778 34.992 28.2439 37.9579 26.2217 38.6319C24.5188 39.4834 19.765 38.9867 17.6009 38.6319C15.3871 41.3565 17.4945 44.9113 19.0909 46.4013C20.2616 47.7849 21.3259 51.4035 21.8581 53C22.965 50.2754 27.286 48.3171 29.3082 47.6785C35.6089 46.6568 38.0355 42.1441 38.4612 40.0155Z" fill="black"/>
<path d="M32.8673 15.0366C27.6797 16.143 25.3916 21.5512 24.8959 24.117C31.4579 22.4898 36.3256 24.8685 37.9392 26.2613C39.5419 27.2891 41.5468 31.628 42.3489 33.669C45.8225 34.1775 47.799 30.5484 48.2628 28.4145C48.8528 26.7008 51.4178 23.9352 52.5174 22.6614C49.61 23.1039 45.7169 20.3927 44.1339 18.9817C40.033 14.0904 34.9142 14.3136 32.8673 15.0366Z" fill="black"/>
<path d="M14.2261 32.3043C17.6901 36.3212 23.5324 35.7277 26.0206 34.9289C21.4391 29.9571 21.1849 24.5453 21.6305 22.4608C21.7612 20.5614 24.602 16.7175 26.0061 15.033C24.7821 11.7427 20.6497 11.7541 18.5556 12.3733C16.7692 12.6798 13.1112 11.7601 11.4655 11.4084C13.2513 13.745 12.7454 18.462 12.2692 20.5285C9.9516 26.4758 12.6081 30.8571 14.2261 32.3043Z" fill="black"/>
<path d="M31.969 5L35.2683 11.4922C31.7774 13.706 27.9956 12.0599 26.541 10.9601L31.969 5Z" fill="black"/>
<path d="M6 38.3126L13.8758 40.0155C14.408 35.8647 11.4135 33.557 10.0443 32.3526L6 38.3126Z" fill="black"/>
<path d="M47.6142 44.0515L40.6962 43.847C40.1641 39.6962 43.7827 36.8226 45.1663 36.3969L47.6142 44.0515Z" fill="black"/>
</svg>
