<svg width="58" height="58" viewBox="0 0 58 58" fill="none" xmlns="http://www.w3.org/2000/svg">
<path d="M32.3922 29.9246L32.9654 37.0887C33.0819 38.5462 33.8869 39.8188 34.6841 41.079C34.93 41.4678 35.1752 41.8555 35.3992 42.247C36.1969 43.6412 36.3488 45.5233 34.8284 47.6906C34.1015 48.7266 33.0707 49.5617 31.8821 49.9049C30.8561 50.2323 28.8634 50.7245 27.012 51.0857C24.9147 51.4948 26.0857 49.9718 26.8923 49.1415C25.6796 48.4734 24.6075 47.4196 23.9499 45.8937C23.4132 44.6482 23.3483 42.6404 24.6674 42.3255C25.2748 42.1805 26.1429 42.6636 27.5966 44.3595C29.1559 45.1392 31.9004 44.9206 30.4034 41.5525C29.8616 41.0107 29.2805 40.6807 28.7283 40.3672C27.3737 39.5978 26.1932 38.9274 26.1932 35.4711V29.3897C24.6339 29.0779 21.6088 27.6121 21.983 24.2439C22.1389 22.8408 23.1993 21.9985 24.322 22.3727C25.0929 21.9874 25.0929 20.8872 24.322 20.5018C22.7627 19.878 19.644 17.695 19.644 13.9526C19.644 10.2102 24.6339 7.09153 27.1288 6V8.80679C29.1559 8.96273 33.4909 8.61967 34.6136 6C36.017 6.15593 38.1688 7.12272 35.5492 9.74239L28.5322 14.4204C28.5322 14.4204 27.8786 17.3234 28.5322 18.6306C29.4678 20.5018 31.8068 21.5309 33.2102 19.5662C34.6136 17.6014 32.2746 15.8238 32.2746 15.8238C34.6136 15.512 39.2916 15.8238 38.8238 19.5662C38.356 23.3086 34.5201 26.0218 30.4034 25.6476C29.8867 25.6476 29.4678 26.0664 29.4678 26.5832V27.1225C29.4678 27.8579 30.064 28.4541 30.7994 28.4541C31.6325 28.4541 32.3258 29.0942 32.3922 29.9246Z" fill="black"/>
<path d="M21.983 30.2581V37.3425C21.983 37.6009 21.7736 37.8103 21.5152 37.8103H19.4881C19.2857 37.8103 19.0887 37.7447 18.9267 37.6232L17.6288 36.6498C17.4222 36.4948 17.2888 36.2613 17.2603 36.0046L16.965 33.347C16.8993 32.755 16.3044 32.3744 15.7393 32.5627L13.0921 33.4451C12.8008 33.5422 12.4805 33.4902 12.2349 33.306L11.2184 32.5437C10.9349 32.3311 10.7959 31.9765 10.8593 31.6278L11.4909 28.1539C11.5953 27.5796 11.1541 27.051 10.5704 27.051H6.60757C6.27893 27.051 5.97439 26.8785 5.80531 26.5967L5.13344 25.4769C4.87649 25.0487 5.00119 24.4941 5.41673 24.2171L11.0682 20.4494C11.4325 20.2066 11.9165 20.2488 12.2332 20.5511L21.6934 29.5813C21.8784 29.7579 21.983 30.0024 21.983 30.2581Z" fill="black"/>
<path d="M36.017 37.3425V30.2581C36.017 30.0024 36.1216 29.7579 36.3066 29.5813L45.7668 20.5511C46.0835 20.2488 46.5675 20.2066 46.9318 20.4494L52.5833 24.2171C52.9988 24.4941 53.1235 25.0487 52.8666 25.4769L52.1947 26.5967C52.0256 26.8785 51.7211 27.051 51.3924 27.051H47.4296C46.8459 27.051 46.4047 27.5796 46.5091 28.1539L47.1407 31.6278C47.2041 31.9765 47.0651 32.3311 46.7816 32.5437L45.7651 33.306C45.5195 33.4902 45.1992 33.5422 44.9079 33.4451L42.2607 32.5627C41.6956 32.3744 41.1007 32.755 41.035 33.347L40.7397 36.0046C40.7112 36.2613 40.5778 36.4948 40.3712 36.6498L39.0733 37.6232C38.9113 37.7447 38.7143 37.8103 38.5119 37.8103H36.4848C36.2264 37.8103 36.017 37.6009 36.017 37.3425Z" fill="black"/>
</svg>
