<svg width="58" height="58" viewBox="0 0 58 58" fill="none" xmlns="http://www.w3.org/2000/svg">
<path d="M17.2491 14.0098L23.9771 6L27.2485 12.5034L22.2651 22.2715L12.4906 27.2038L6 23.907L14.036 17.2104L15.6844 18.9618H18.9812L18.9941 15.665L17.2491 14.0098Z" fill="black"/>
<path d="M40.7509 14.0098L34.0229 6L30.7515 12.5034L35.7349 22.2715L45.5094 27.2038L52 23.907L43.964 17.2104L42.3156 18.9618H39.0188L39.0059 15.665L40.7509 14.0098Z" fill="black"/>
<path d="M25.7809 25.6517L29.0777 17.5127L32.4775 25.6517L40.5135 28.8455L32.4775 32.0393L29.0777 40.1783L25.7809 32.0393L17.7449 28.8455L25.7809 25.6517Z" fill="black"/>
<path d="M52 33.7907L43.964 40.4874L42.3156 38.7359H39.0188L39.0059 42.0327L40.7509 43.688L34.0229 51.6977L30.7515 45.1943L35.7349 35.4263L45.5094 30.4939L52 33.7907Z" fill="black"/>
<path d="M6 33.7907L14.036 40.4874L15.6844 38.7359H18.9812L18.9941 42.0327L17.2491 43.688L23.9771 51.6977L27.2485 45.1943L22.2651 35.4263L12.4906 30.4939L6 33.7907Z" fill="black"/>
</svg>
