<?xml version="1.0" standalone="no"?>
<!DOCTYPE svg PUBLIC "-//W3C//DTD SVG 20010904//EN"
 "http://www.w3.org/TR/2001/REC-SVG-20010904/DTD/svg10.dtd">
<svg version="1.0" xmlns="http://www.w3.org/2000/svg"
 width="500.000000pt" height="500.000000pt" viewBox="0 0 500.000000 500.000000"
 preserveAspectRatio="xMidYMid meet">

<g transform="translate(0.000000,500.000000) scale(0.100000,-0.100000)"
fill="#000000" stroke="none">
<path d="M2458 3808 c-3 -43 -3 -43 -45 -46 -40 -3 -43 -5 -43 -32 0 -27 3
-29 43 -32 42 -3 42 -3 45 -45 3 -40 5 -43 32 -43 27 0 29 3 32 43 3 41 4 42
41 45 34 3 37 6 37 33 0 27 -2 29 -40 29 l-40 0 0 45 c0 43 -1 45 -29 45 -28
0 -30 -3 -33 -42z"/>
<path d="M2332 3568 c-19 -19 -15 -66 7 -78 11 -5 73 -10 138 -10 126 0 163
11 163 50 0 43 -24 50 -164 50 -89 0 -136 -4 -144 -12z"/>
<path d="M2132 3434 c-12 -8 -22 -25 -22 -37 0 -12 29 -128 64 -257 l63 -235
240 -3 240 -2 61 227 c33 126 64 240 67 255 5 19 1 32 -14 47 -20 20 -30 21
-349 21 -280 0 -331 -2 -350 -16z m92 -152 c16 -27 63 -228 55 -237 -6 -6 -12
-6 -18 0 -11 12 -61 198 -61 226 0 19 15 26 24 11z"/>
<path d="M2170 2850 c-25 -25 -25 -42 -2 -63 16 -15 53 -17 306 -17 179 0 295
4 307 10 23 13 25 53 3 74 -13 14 -55 16 -305 16 -276 0 -290 -1 -309 -20z"/>
<path d="M2129 2721 c-20 -16 -22 -23 -14 -47 l10 -29 345 -3 c342 -2 345 -2
363 19 22 27 21 35 -3 59 -19 19 -33 20 -349 20 -308 0 -330 -1 -352 -19z"/>
<path d="M1700 2400 l0 -140 35 0 35 0 0 53 1 52 33 -39 33 -38 28 36 c15 20
31 36 36 36 5 0 9 -22 9 -50 0 -49 1 -50 30 -50 l30 0 0 140 c0 77 -2 140 -4
140 -2 0 -31 -34 -64 -76 -34 -41 -63 -76 -65 -77 -3 -1 -33 33 -66 76 -34 42
-64 77 -66 77 -3 0 -5 -63 -5 -140z"/>
<path d="M2086 2488 c15 -24 40 -62 55 -85 23 -32 29 -53 29 -92 l0 -51 35 0
35 0 0 55 c0 50 5 63 50 130 28 41 50 77 50 80 0 3 -18 5 -39 5 -37 0 -41 -3
-69 -52 l-30 -51 -29 51 c-27 50 -30 52 -71 52 l-42 0 26 -42z"/>
<path d="M2582 2503 c2 -22 9 -29 30 -31 l27 -3 3 -102 3 -102 33 -3 32 -3 0
105 0 105 33 3 c27 2 33 8 35 31 l3 27 -101 0 -101 0 3 -27z"/>
<path d="M2870 2394 l0 -135 33 3 c31 3 32 5 35 51 l3 47 45 0 c40 0 44 2 44
25 0 23 -4 25 -45 25 -43 0 -45 1 -45 29 0 29 2 30 53 33 48 3 52 5 55 31 l3
27 -90 0 -91 0 0 -136z"/>
<path d="M3122 2503 c2 -23 8 -29 36 -31 l32 -3 0 -105 0 -104 35 0 35 0 0
105 0 105 30 0 c27 0 30 3 30 30 l0 30 -101 0 -100 0 3 -27z"/>
<path d="M2240 2081 c0 -10 -3 -33 -6 -50 l-6 -31 246 0 246 0 0 50 0 50 -240
0 c-228 0 -240 -1 -240 -19z"/>
<path d="M2161 1908 c-17 -80 -62 -148 -156 -241 -51 -50 -85 -92 -85 -104 0
-11 9 -32 21 -47 l20 -26 518 0 c489 0 519 1 534 18 10 10 17 33 17 51 0 27
-13 44 -86 114 -93 88 -137 160 -150 244 l-6 43 -308 0 -307 0 -12 -52z"/>
<path d="M1883 1434 c-3 -9 -2 -24 4 -33 9 -14 69 -16 591 -19 579 -2 581 -2
592 19 27 49 33 49 -597 49 -531 0 -584 -1 -590 -16z"/>
</g>
</svg>
